{"title":"A Dangerous Method 2011 720p BRRIP XVID AC3 - Xtreme Encode","uid":6994042,"size":2749812104,"categoryP":"video","categoryS":"hd___movies","magnet":"?xt=urn:btih:b94294490d10971433d7943d2ea8163cd3ae0327&amp;dn=A+Dangerous+Method+2011+720p+BRRIP+XVID+AC3+-+Xtreme+Encode&amp;tr=udp%3A%2F%2Ftracker.openbittorrent.com%3A80&amp;tr=udp%3A%2F%2Fopen.demonii.com%3A1337&amp;tr=udp%3A%2F%2Ftracker.coppersurfer.tk%3A6969&amp;tr=udp%3A%2F%2Fexodus.desync.com%3A6969","seeders":0,"leechers":1,"uploader":"TvTeam","files":108,"time":1327803333,"description":". \n &lt;a href=&quot;\nhttp://www.torrenting.com&quot; rel=&quot;nofollow&quot; target=&quot;_NEW&quot;&gt;\nhttp://www.torrenting.com&lt;/a&gt;          :     Once &amp; For all ;)\n\n\n               www . Torrenting . Com \n\n(((((((((((((= Enjoy No RAR releases =))))))))))))))))))))\n\n\n...................................NFO:....................................\n\n.[align=center]\n        [/align]\n\n\n[size=3][color=#009999]\n\n\n\n   A Dangerous Method 2011 720p BRRIP XVID AC3 - Xtreme Encode\n\n\n\n[/color][/size]\n\n\n[size=3]\n[color=#CC9933]General\n\n\nComplete name                            : A Dangerous Method 2011 720p BRRIP XVID AC3 - Xtreme Encode.avi\nFormat                                   : AVI\nFormat/Info                              : Audio Video Interleave\nFormat profile                           : OpenDML\nFile size                                : 2.53 GiB\nDuration                                 : 1h 39mn\nOverall bit rate                         : 3 657 Kbps[/color][/size]\n\n\n\n\n[size=3][color=#669900]\nVideo\n\n\nID                                       : 0\nFormat                                   : MPEG-4 Visual\nFormat profile                           : Advanced Simple@L5\nFormat settings, BVOP                    : 1\nFormat settings, QPel                    : No\nFormat settings, GMC                     : No warppoints\nFormat settings, Matrix                  : Default (H.263)\nCodec ID                                 : XVID\nCodec ID/Hint                            : XviD\nDuration                                 : 1h 39mn\nBit rate                                 : 3 198 Kbps\nWidth                                    : 1 280 pixels\nHeight                                   : 688 pixels\nDisplay aspect ratio                     : 1.860\nFrame rate                               : 24.000 fps\nColor space                              : YUV\nChroma subsampling                       : 4:2:0\nBit depth                                : 8 bits\nScan type                                : Progressive\nCompression mode                         : Lossy\nBits/(Pixel*Frame)                       : 0.151\nStream size                              : 2.22 GiB (87%)[/color][/size]\n\n\n\n[size=3][color=#009900]Audio\n\n\nID                                       : 1\nFormat                                   : AC-3\nFormat/Info                              : Audio Coding 3\nMode extension                           : CM (complete main)\nCodec ID                                 : 2000\nDuration                                 : 1h 39mn\nBit rate mode                            : Constant\nBit rate                                 : 448 Kbps\nChannel(s)                               : 6 channels\nChannel positions                        : Front: L C R, Side: L R, LFE\nSampling rate                            : 48.0 KHz\nBit depth                                : 16 bits\nCompression mode                         : Lossy\nStream size                              : 318 MiB (12%)\nAlignment                                : Split accross interleaves\nInterleave, duration                     : 42 ms (1.00 video frame)\nInterleave, preload duration             : 500 ms[/color][/size]\n\n\n\n\n\n[size=3][color=#6699FF]\nSOURCE\nVideo : 720p BluRay x264-KALIBER\nAudio : 720p BluRay x264-KALIBER\n\n\n\nJUST A LITTLE MESS WITH THIS ADDES BIT OF CONTRAS \nRESIZED BIT TWEAKED BIT SHARPEN in \nSAT HUE and few othere things :)[/color][/size]\n\n\n\n\n[size=3][color=#0099CC]PLOT\n\nA look at how the intense relationship between \nCarl Jung and Sigmund Freud gives birth to psychoanalysis.\n\n\n [/color][/size]\n\n\n[size=3][color=#CC6600]Genres: Biography | Drama | Thriller \n\n\nDirector: David Cronenberg\n\nWriters: Christopher Hampton (screenplay), John Kerr (book), \n\nStars: Michael Fassbender, Keira Knightley and Viggo Mortensen [/color][/size]\n\n\n[size=3][color=#0033FF]IMDB: http://www.imdb.com/title/tt1571222/[/color][/size]\n\n\n\n[size=3][color=#996600]HOPE U ALL LIKE THIS IF SO PLS REP\n   \nIF U GOT ANYTHING TO OFFER JUST DROP ONE AT: &lt;a class=&quot;__cf_email__&quot; href=&quot;/cdn-cgi/l/email-protection&quot; data-cfemail=&quot;732b0701161e165e361d101c1716331b06001b1e121a1f5d1e16&quot;&gt;[email&amp;#160;protected]&lt;/a&gt;&lt;script cf-hash='f9e31' type=&quot;text/javascript&quot;&gt;\n/* &lt;![CDATA[ */!function(){try{var t=&quot;currentScript&quot;in document?document.currentScript:function(){for(var t=document.getElementsByTagName(&quot;script&quot;),e=t.length;e--;)if(t[e].getAttribute(&quot;cf-hash&quot;))return t[e]}();if(t&amp;&amp;t.previousSibling){var e,r,n,i,c=t.previousSibling,a=c.getAttribute(&quot;data-cfemail&quot;);if(a){for(e=&quot;&quot;,r=parseInt(a.substr(0,2),16),n=2;a.length-n;n+=2)i=parseInt(a.substr(n,2),16)^r,e+=String.fromCharCode(i);e=document.createTextNode(e),c.parentNode.replaceChild(e,c)}}}catch(u){}}();/* ]]&gt; */&lt;/script&gt;  :)[/color][/size]\n\n\n\n[size=3][color=#CC0000]\nSCREENS:\n\n\n\n\n\n[/color][/size]\n\n\n[size=3][b][font=Times New Roman][color=#3366CC]\n      GREETS:\n\nIMAGiNE / ELEKTRI4KA / FLAWL3SS  \nViSiON / CRYS / BMB / MiSTERE / 26K\nAMB / FYA / Jamie111 / VISUALiSE  \nILLUMINATI / Rx / REFiLL / BHRG\nTO MY FRIENDS  AND ALL OTHER GROUPS  :)[/color][/font][/b][/size]","torrent":{"xt":"urn:btih:b94294490d10971433d7943d2ea8163cd3ae0327","amp;dn":"A+Dangerous+Method+2011+720p+BRRIP+XVID+AC3+-+Xtreme+Encode","amp;tr":["udp%3A%2F%2Ftracker.openbittorrent.com%3A80","udp%3A%2F%2Fopen.demonii.com%3A1337","udp%3A%2F%2Ftracker.coppersurfer.tk%3A6969","udp%3A%2F%2Fexodus.desync.com%3A6969"],"infoHash":"b94294490d10971433d7943d2ea8163cd3ae0327","infoHashBuffer":{"type":"Buffer","data":[185,66,148,73,13,16,151,20,51,215,148,61,46,168,22,60,211,174,3,39]},"announce":[],"urlList":[]}}